<svg width="180.5999973842076" height="163" xmlns="http://www.w3.org/2000/svg" class="iconAbove">
 <!---->
 <!---->
 <!---->
 <defs>
  <linearGradient y2="0%" x2="100%" y1="0%" x1="0%" id="1a8405a8-7b9c-4fc6-b8c7-05e9dbb9f49d" gradientTransform="rotate(25)">
   <stop style="--darkreader-inline-stopcolor:#595c58;" stop-color=" rgb(0, 118, 221)" offset="0%"/>
   <stop style="--darkreader-inline-stopcolor:#664c55;" stop-color=" rgb(230, 0, 233)" offset="100%"/>
  </linearGradient>
 </defs>
 <!---->
 <g>
  <title>background</title>
  <rect fill="none" id="canvas_background" height="402" width="582" y="-1" x="-1"/>
 </g>
 <g>
  <title>Layer 1</title>
  <g style="--darkreader-inline-stroke:none;" fill="url(#1a8405a8-7b9c-4fc6-b8c7-05e9dbb9f49d)" transform="matrix(2.129979690967401,0,0,2.1359974660275625,53.92053793496552,-26.991038474857856) " id="1f0bb9ae-f57a-4194-b625-69fbb3dd6ca5">
   <path id="svg_2" d="m16.23202,22.967c-9.975,-5.691 -20.677,-9.125 -31.045,-9.962l0,58.351c10.367,0.814 21.05,4.154 31.045,9.699l0,-58.088zm32.875,-9.962c-10.368,0.838 -21.071,4.271 -31.045,9.962l0,58.087c9.993,-5.545 20.679,-8.885 31.045,-9.699l0,-58.35z"/>
   <path id="svg_3" d="m15.89202,84.073c0.814,0.278 1.671,0.29 2.485,0.012c11.657,-5.043 23.865,-7.313 35.798,-6.79l0,-57.771a67.09,67.09 0 0 0 -3.24,-0.055l0,53.594l-0.852,0.056c-10.672,0.697 -21.732,4.177 -32.021,10.048a2.826,2.826 0 0 1 -1.83,0c-10.29,-5.871 -21.349,-9.351 -32.021,-10.048l-0.854,-0.056l0,-53.594a65.788,65.788 0 0 0 -3.239,0.055l0,57.771c11.932,-0.524 24.114,1.735 35.774,6.778z"/>
   <path id="svg_4" d="m59.24202,26.009c-1.07,-0.149 -2.157,-0.228 -3.237,-0.335l0,53.55l-0.968,-0.056c-12.195,-0.699 -25.06,1.777 -36.975,7.065l-0.916,0.381l-0.915,-0.381c-11.917,-5.288 -24.781,-7.765 -36.976,-7.065l-0.967,0.056l0,-53.55c-1.081,0.108 -2.168,0.187 -3.238,0.335l0,58.707a4.876,4.876 0 0 1 1.044,0.748c12.951,-1.75 26.393,-1.536 39.18,2.651a19.022,19.022 0 0 1 1.873,-0.095c0.661,0 1.285,0.037 1.872,0.095c12.785,-4.188 26.229,-4.401 39.179,-2.651c0,0 0.474,-0.462 1.044,-0.748l0,-58.707z"/>
  </g>
 </g>
</svg>